<?xml version="1.0" standalone="no"?>
<!DOCTYPE svg PUBLIC "-//W3C//DTD SVG 20010904//EN"
 "http://www.w3.org/TR/2001/REC-SVG-20010904/DTD/svg10.dtd">
<svg version="1.0" xmlns="http://www.w3.org/2000/svg"
 width="120.000000pt" height="120.000000pt" viewBox="0 0 120.000000 120.000000"
 preserveAspectRatio="xMidYMid meet">
<metadata>
Created by potrace 1.11, written by Peter Selinger 2001-2013
</metadata>
<g transform="translate(0.000000,120.000000) scale(0.100000,-0.100000)"
fill="#000000" stroke="none">
<path d="M448 1165 c-2 -32 -7 -39 -28 -41 -69 -9 -88 -16 -107 -37 -40 -43
-50 -79 -50 -169 0 -83 3 -93 30 -89 12 2 9 -3 -34 -60 -157 -209 -140 -490
40 -652 86 -76 180 -113 294 -114 128 -2 232 40 322 132 56 56 110 145 118
191 1 10 5 24 9 29 3 6 7 106 7 224 l2 213 -74 -6 -74 -6 -7 70 c-11 123 -52
197 -152 280 -43 35 -130 63 -211 68 l-82 5 -3 -38z"/>
</g>
</svg>
